# MagicaVoxel @ Ephtracy

# group
o 

# material
mtllib mickey.mtl
usemtl palette

# normals
vn -1 0 0
vn 1 0 0
vn 0 0 1
vn 0 0 -1
vn 0 -1 0
vn 0 1 0

# texcoords
vt 0.0214844 0.5
vt 0.0332031 0.5
vt 0.841797 0.5
vt 0.958984 0.5
vt 0.994141 0.5

# verts
v -1 2 -0.4
v -1 2 -0.6
v -1 2.3 -0.4
v -1 2.3 -0.6
v -0.9 1.9 -0.4
v -0.9 1.9 -0.6
v -0.9 2 -0.4
v -0.9 2 -0.6
v -0.9 2.3 -0.4
v -0.9 2.3 -0.6
v -0.9 2.4 -0.4
v -0.9 2.4 -0.6
v -0.8 1.8 -0.4
v -0.8 1.8 -0.6
v -0.8 1.9 -0.4
v -0.8 1.9 -0.6
v -0.8 2.4 -0.4
v -0.8 2.4 -0.6
v -0.8 2.5 -0.4
v -0.8 2.5 -0.6
v -0.7 1 -0.1
v -0.7 1 -0.6
v -0.7 1 -0.7
v -0.7 1.1 -0.7
v -0.7 1.1 -0.8
v -0.7 1.3 -0.7
v -0.7 1.3 -0.8
v -0.7 1.4 -0.1
v -0.7 1.4 -0.6
v -0.7 1.4 -0.7
v -0.7 1.7 -0.5
v -0.7 1.7 -0.6
v -0.7 1.8 -0.5
v -0.7 1.8 -0.6
v -0.6 1 -0.7
v -0.6 1 -0.8
v -0.6 1.1 -0.7
v -0.6 1.1 -0.8
v -0.6 1.3 -0.7
v -0.6 1.3 -0.8
v -0.6 1.4 -0.1
v -0.6 1.4 -0.3
v -0.6 1.4 -0.6
v -0.6 1.4 -0.7
v -0.6 1.6 -0.2
v -0.6 1.6 -0.3
v -0.6 1.7 -0.1
v -0.6 1.7 -0.2
v -0.6 1.7 -0.5
v -0.6 1.7 -0.6
v -0.6 1.8 -0.1
v -0.6 1.8 -0.2
v -0.6 1.8 -0.4
v -0.6 1.8 -0.5
v -0.6 1.8 -0.7
v -0.6 1.8 -0.8
v -0.6 1.9 -0.2
v -0.6 1.9 -0.4
v -0.6 1.9 -0.6
v -0.6 1.9 -0.7
v -0.5 0.4 -0.3
v -0.5 0.4 -0.5
v -0.5 0.6 -0.3
v -0.5 0.6 -0.4
v -0.5 0.6 -0.5
v -0.5 0.8 -0.4
v -0.5 0.8 -0.5
v -0.5 0.9 -0.1
v -0.5 0.9 -0.6
v -0.5 0.9 -0.7
v -0.5 1 -5.96046e-08
v -0.5 1 -0.1
v -0.5 1 -0.6
v -0.5 1 -0.7
v -0.5 1.2 -5.96046e-08
v -0.5 1.2 -0.1
v -0.5 1.8 -0.1
v -0.5 1.8 -0.2
v -0.5 1.8 -0.7
v -0.5 1.8 -0.8
v -0.5 1.9 -0.1
v -0.5 1.9 -0.2
v -0.5 1.9 -0.3
v -0.5 1.9 -0.4
v -0.5 1.9 -0.6
v -0.5 1.9 -0.7
v -0.5 1.9 -0.8
v -0.5 2 -0.3
v -0.5 2 -0.4
v -0.5 2 -0.6
v -0.5 2 -0.7
v -0.4 0 -0.2
v -0.4 0 -0.6
v -0.4 0.2 -0.2
v -0.4 0.2 -0.6
v -0.4 0.8 -0.4
v -0.4 0.8 -0.5
v -0.4 0.9 -5.96046e-08
v -0.4 0.9 -0.1
v -0.4 0.9 -0.4
v -0.4 0.9 -0.5
v -0.4 1 -5.96046e-08
v -0.4 1 -0.1
v -0.4 1.2 -5.96046e-08
v -0.4 1.2 -0.1
v -0.4 1.6 -5.96046e-08
v -0.4 1.6 -0.1
v -0.4 1.6 -0.6
v -0.4 1.6 -0.7
v -0.4 1.7 -0.6
v -0.4 1.7 -0.7
v -0.4 1.9 -0.2
v -0.4 1.9 -0.3
v -0.4 2 -0.2
v -0.4 2 -0.3
v -0.3 0.2 -0.4
v -0.3 0.2 -0.5
v -0.3 0.4 -0.4
v -0.3 0.4 -0.5
v -0.3 0.5 -0.5
v -0.3 0.5 -0.6
v -0.3 0.6 -0.3
v -0.3 0.6 -0.5
v -0.3 0.7 -0.3
v -0.3 0.7 -0.6
v -0.3 0.8 -0.4
v -0.3 0.8 -0.5
v -0.3 0.9 -0.3
v -0.3 0.9 -0.4
v -0.3 0.9 -0.5
v -0.3 0.9 -0.6
v -0.2 1 0.0999999
v -0.2 1 -5.96046e-08
v -0.2 1.2 -5.96046e-08
v -0.2 1.3 0.0999999
v -0.2 1.3 -5.96046e-08
v -0.1 1.2 0.2
v -0.1 1.2 0.0999999
v -0.1 1.3 0.0999999
v -0.1 1.4 0.2
v -0.1 1.4 0.0999999
v 0 0 -0.2
v 0 0 -0.6
v 0 0.2 -0.2
v 0 0.2 -0.6
v 0.1 0.2 -0.4
v 0.1 0.2 -0.5
v 0.1 0.5 -0.4
v 0.1 0.5 -0.5
v 0.1 1.3 -5.96046e-08
v 0.1 1.3 -0.1
v 0.1 1.5 -5.96046e-08
v 0.1 1.5 -0.1
v 0.1 1.6 -5.96046e-08
v 0.1 1.6 -0.1
v 0.2 0.4 -0.3
v 0.2 0.4 -0.4
v 0.2 0.5 -0.3
v 0.2 0.5 -0.4
v 0.2 2 -0.4
v 0.2 2 -0.6
v 0.2 2.3 -0.4
v 0.2 2.3 -0.6
v 0.3 0.6 -0.4
v 0.3 0.6 -0.5
v 0.3 0.8 -0.4
v 0.3 0.8 -0.5
v 0.3 2.3 -0.4
v 0.3 2.3 -0.6
v 0.3 2.4 -0.4
v 0.3 2.4 -0.6
v 0.4 1.6 -0.6
v 0.4 1.6 -0.7
v 0.4 1.7 -0.6
v 0.4 1.7 -0.7
v 0.4 2.4 -0.4
v 0.4 2.4 -0.6
v 0.4 2.5 -0.4
v 0.4 2.5 -0.6
v -0.5 1.6 -0.6
v -0.5 1.6 -0.7
v -0.5 1.7 -0.6
v -0.5 1.7 -0.7
v -0.5 2.4 -0.4
v -0.5 2.4 -0.6
v -0.5 2.5 -0.4
v -0.5 2.5 -0.6
v -0.4 0.6 -0.4
v -0.4 0.6 -0.5
v -0.4 0.8 -0.4
v -0.4 0.8 -0.5
v -0.4 2.3 -0.4
v -0.4 2.3 -0.6
v -0.4 2.4 -0.4
v -0.4 2.4 -0.6
v -0.3 0.4 -0.3
v -0.3 0.4 -0.4
v -0.3 0.5 -0.3
v -0.3 0.5 -0.4
v -0.3 2 -0.4
v -0.3 2 -0.6
v -0.3 2.3 -0.4
v -0.3 2.3 -0.6
v -0.2 0.2 -0.4
v -0.2 0.2 -0.5
v -0.2 0.5 -0.4
v -0.2 0.5 -0.5
v -0.2 1.3 -5.96046e-08
v -0.2 1.3 -0.1
v -0.2 1.5 -5.96046e-08
v -0.2 1.5 -0.1
v -0.2 1.6 -5.96046e-08
v -0.2 1.6 -0.1
v -0.1 0 -0.2
v -0.1 0 -0.6
v -0.1 0.2 -0.2
v -0.1 0.2 -0.6
v 0 1.2 0.2
v 0 1.2 0.0999999
v 0 1.3 0.0999999
v 0 1.4 0.2
v 0 1.4 0.0999999
v 0.1 1 0.0999999
v 0.1 1 -5.96046e-08
v 0.1 1.2 -5.96046e-08
v 0.1 1.3 0.0999999
v 0.1 1.3 -5.96046e-08
v 0.2 0.2 -0.4
v 0.2 0.2 -0.5
v 0.2 0.4 -0.4
v 0.2 0.4 -0.5
v 0.2 0.5 -0.5
v 0.2 0.5 -0.6
v 0.2 0.6 -0.3
v 0.2 0.6 -0.5
v 0.2 0.7 -0.3
v 0.2 0.7 -0.6
v 0.2 0.8 -0.4
v 0.2 0.8 -0.5
v 0.2 0.9 -0.3
v 0.2 0.9 -0.4
v 0.2 0.9 -0.5
v 0.2 0.9 -0.6
v 0.2 1.6 -0.6
v 0.2 1.6 -0.7
v 0.2 1.7 -0.6
v 0.2 1.7 -0.7
v 0.3 0 -0.2
v 0.3 0 -0.6
v 0.3 0.2 -0.2
v 0.3 0.2 -0.6
v 0.3 0.8 -0.4
v 0.3 0.8 -0.5
v 0.3 0.9 -5.96046e-08
v 0.3 0.9 -0.1
v 0.3 0.9 -0.4
v 0.3 0.9 -0.5
v 0.3 1 -5.96046e-08
v 0.3 1 -0.1
v 0.3 1.2 -5.96046e-08
v 0.3 1.2 -0.1
v 0.3 1.6 -5.96046e-08
v 0.3 1.6 -0.1
v 0.3 1.9 -0.2
v 0.3 1.9 -0.3
v 0.3 2 -0.2
v 0.3 2 -0.3
v 0.4 0.4 -0.3
v 0.4 0.4 -0.5
v 0.4 0.6 -0.3
v 0.4 0.6 -0.4
v 0.4 0.6 -0.5
v 0.4 0.8 -0.4
v 0.4 0.8 -0.5
v 0.4 0.9 -0.1
v 0.4 0.9 -0.6
v 0.4 0.9 -0.7
v 0.4 1 -5.96046e-08
v 0.4 1 -0.1
v 0.4 1 -0.6
v 0.4 1 -0.7
v 0.4 1.2 -5.96046e-08
v 0.4 1.2 -0.1
v 0.4 1.8 -0.1
v 0.4 1.8 -0.2
v 0.4 1.8 -0.7
v 0.4 1.8 -0.8
v 0.4 1.9 -0.1
v 0.4 1.9 -0.2
v 0.4 1.9 -0.3
v 0.4 1.9 -0.4
v 0.4 1.9 -0.6
v 0.4 1.9 -0.7
v 0.4 1.9 -0.8
v 0.4 2 -0.3
v 0.4 2 -0.4
v 0.4 2 -0.6
v 0.4 2 -0.7
v 0.5 1 -0.7
v 0.5 1 -0.8
v 0.5 1.1 -0.7
v 0.5 1.1 -0.8
v 0.5 1.3 -0.7
v 0.5 1.3 -0.8
v 0.5 1.4 -0.1
v 0.5 1.4 -0.3
v 0.5 1.4 -0.6
v 0.5 1.4 -0.7
v 0.5 1.6 -0.2
v 0.5 1.6 -0.3
v 0.5 1.7 -0.1
v 0.5 1.7 -0.2
v 0.5 1.8 -0.1
v 0.5 1.8 -0.2
v 0.5 1.8 -0.4
v 0.5 1.8 -0.6
v 0.5 1.8 -0.7
v 0.5 1.8 -0.8
v 0.5 1.9 -0.2
v 0.5 1.9 -0.4
v 0.5 1.9 -0.6
v 0.5 1.9 -0.7
v 0.6 1 -0.1
v 0.6 1 -0.6
v 0.6 1 -0.7
v 0.6 1.1 -0.7
v 0.6 1.1 -0.8
v 0.6 1.3 -0.7
v 0.6 1.3 -0.8
v 0.6 1.4 -0.1
v 0.6 1.4 -0.6
v 0.6 1.4 -0.7
v 0.7 1.8 -0.4
v 0.7 1.8 -0.6
v 0.7 1.9 -0.4
v 0.7 1.9 -0.6
v 0.7 2.4 -0.4
v 0.7 2.4 -0.6
v 0.7 2.5 -0.4
v 0.7 2.5 -0.6
v 0.8 1.9 -0.4
v 0.8 1.9 -0.6
v 0.8 2 -0.4
v 0.8 2 -0.6
v 0.8 2.3 -0.4
v 0.8 2.3 -0.6
v 0.8 2.4 -0.4
v 0.8 2.4 -0.6
v 0.9 2 -0.4
v 0.9 2 -0.6
v 0.9 2.3 -0.4
v 0.9 2.3 -0.6
v -0.1 1.2 0.2
v -0.1 1.4 0.2
v 0 1.2 0.2
v 0 1.4 0.2
v -0.2 1 0.0999999
v -0.2 1.3 0.0999999
v -0.1 1.2 0.0999999
v -0.1 1.3 0.0999999
v 0 1.2 0.0999999
v 0 1.3 0.0999999
v 0.1 1 0.0999999
v 0.1 1.3 0.0999999
v -0.5 1 -5.96046e-08
v -0.5 1.2 -5.96046e-08
v -0.4 0.9 -5.96046e-08
v -0.4 1 -5.96046e-08
v -0.4 1.2 -5.96046e-08
v -0.4 1.6 -5.96046e-08
v -0.3 1.2 -5.96046e-08
v -0.3 1.5 -5.96046e-08
v -0.2 1 -5.96046e-08
v -0.2 1.2 -5.96046e-08
v -0.2 1.3 -5.96046e-08
v -0.2 1.5 -5.96046e-08
v -0.2 1.6 -5.96046e-08
v 0.1 1 -5.96046e-08
v 0.1 1.2 -5.96046e-08
v 0.1 1.3 -5.96046e-08
v 0.1 1.5 -5.96046e-08
v 0.1 1.6 -5.96046e-08
v 0.2 1.2 -5.96046e-08
v 0.2 1.5 -5.96046e-08
v 0.3 0.9 -5.96046e-08
v 0.3 1 -5.96046e-08
v 0.3 1.2 -5.96046e-08
v 0.3 1.6 -5.96046e-08
v 0.4 1 -5.96046e-08
v 0.4 1.2 -5.96046e-08
v -0.7 1 -0.1
v -0.7 1.4 -0.1
v -0.6 1.4 -0.1
v -0.6 1.7 -0.1
v -0.6 1.8 -0.1
v -0.5 0.9 -0.1
v -0.5 1 -0.1
v -0.5 1.2 -0.1
v -0.5 1.7 -0.1
v -0.5 1.8 -0.1
v -0.5 1.9 -0.1
v -0.4 0.9 -0.1
v -0.4 1 -0.1
v -0.4 1.2 -0.1
v -0.4 1.6 -0.1
v -0.3 1.7 -0.1
v -0.3 1.8 -0.1
v -0.2 1.3 -0.1
v -0.2 1.5 -0.1
v -0.2 1.6 -0.1
v -0.2 1.7 -0.1
v 0.1 1.3 -0.1
v 0.1 1.5 -0.1
v 0.1 1.6 -0.1
v 0.1 1.7 -0.1
v 0.2 1.7 -0.1
v 0.2 1.8 -0.1
v 0.3 0.9 -0.1
v 0.3 1 -0.1
v 0.3 1.2 -0.1
v 0.3 1.6 -0.1
v 0.4 0.9 -0.1
v 0.4 1 -0.1
v 0.4 1.2 -0.1
v 0.4 1.7 -0.1
v 0.4 1.8 -0.1
v 0.4 1.9 -0.1
v 0.5 1.4 -0.1
v 0.5 1.7 -0.1
v 0.5 1.8 -0.1
v 0.6 1 -0.1
v 0.6 1.4 -0.1
v -0.6 1.8 -0.2
v -0.6 1.9 -0.2
v -0.5 1.8 -0.2
v -0.5 1.9 -0.2
v -0.4 0 -0.2
v -0.4 0.2 -0.2
v -0.4 1.9 -0.2
v -0.4 2 -0.2
v -0.1 0 -0.2
v -0.1 0.2 -0.2
v 0 0 -0.2
v 0 0.2 -0.2
v 0.3 0 -0.2
v 0.3 0.2 -0.2
v 0.3 1.9 -0.2
v 0.3 2 -0.2
v 0.4 1.8 -0.2
v 0.4 1.9 -0.2
v 0.5 1.8 -0.2
v 0.5 1.9 -0.2
v -0.5 0.4 -0.3
v -0.5 0.6 -0.3
v -0.5 1.9 -0.3
v -0.5 2 -0.3
v -0.4 1.9 -0.3
v -0.4 2 -0.3
v -0.3 0.4 -0.3
v -0.3 0.5 -0.3
v -0.3 0.6 -0.3
v -0.3 0.7 -0.3
v -0.3 0.9 -0.3
v -0.2 0.6 -0.3
v -0.2 0.7 -0.3
v -0.1 0.6 -0.3
v -0.1 0.7 -0.3
v 0 0.6 -0.3
v 0 0.7 -0.3
v 0.1 0.6 -0.3
v 0.1 0.7 -0.3
v 0.2 0.4 -0.3
v 0.2 0.5 -0.3
v 0.2 0.6 -0.3
v 0.2 0.7 -0.3
v 0.2 0.9 -0.3
v 0.3 1.9 -0.3
v 0.3 2 -0.3
v 0.4 0.4 -0.3
v 0.4 0.6 -0.3
v 0.4 1.9 -0.3
v 0.4 2 -0.3
v -1 2 -0.4
v -1 2.3 -0.4
v -0.9 1.9 -0.4
v -0.9 2 -0.4
v -0.9 2.3 -0.4
v -0.9 2.4 -0.4
v -0.8 1.8 -0.4
v -0.8 1.9 -0.4
v -0.8 2.4 -0.4
v -0.8 2.5 -0.4
v -0.6 1.8 -0.4
v -0.6 1.9 -0.4
v -0.5 0.6 -0.4
v -0.5 0.8 -0.4
v -0.5 1.9 -0.4
v -0.5 2 -0.4
v -0.5 2.4 -0.4
v -0.5 2.5 -0.4
v -0.4 0.6 -0.4
v -0.4 0.8 -0.4
v -0.4 0.9 -0.4
v -0.4 2.3 -0.4
v -0.4 2.4 -0.4
v -0.3 0.2 -0.4
v -0.3 0.4 -0.4
v -0.3 0.5 -0.4
v -0.3 0.8 -0.4
v -0.3 0.9 -0.4
v -0.3 2 -0.4
v -0.3 2.3 -0.4
v -0.2 0.2 -0.4
v -0.2 0.5 -0.4
v 0.1 0.2 -0.4
v 0.1 0.5 -0.4
v 0.2 0.2 -0.4
v 0.2 0.4 -0.4
v 0.2 0.5 -0.4
v 0.2 0.8 -0.4
v 0.2 0.9 -0.4
v 0.2 2 -0.4
v 0.2 2.3 -0.4
v 0.3 0.6 -0.4
v 0.3 0.8 -0.4
v 0.3 0.9 -0.4
v 0.3 2.3 -0.4
v 0.3 2.4 -0.4
v 0.4 0.6 -0.4
v 0.4 0.8 -0.4
v 0.4 1.9 -0.4
v 0.4 2 -0.4
v 0.4 2.4 -0.4
v 0.4 2.5 -0.4
v 0.5 1.8 -0.4
v 0.5 1.9 -0.4
v 0.7 1.8 -0.4
v 0.7 1.9 -0.4
v 0.7 2.4 -0.4
v 0.7 2.5 -0.4
v 0.8 1.9 -0.4
v 0.8 2 -0.4
v 0.8 2.3 -0.4
v 0.8 2.4 -0.4
v 0.9 2 -0.4
v 0.9 2.3 -0.4
v -0.7 1.7 -0.5
v -0.7 1.8 -0.5
v -0.6 1.7 -0.5
v -0.6 1.8 -0.5
v -0.5 1.6 -0.7
v -0.5 1.7 -0.7
v -0.4 1.6 -0.7
v -0.4 1.7 -0.7
v 0.2 1.6 -0.7
v 0.2 1.7 -0.7
v 0.4 1.6 -0.7
v 0.4 1.7 -0.7
v -0.1 1.3 0.0999999
v -0.1 1.4 0.0999999
v 0 1.3 0.0999999
v 0 1.4 0.0999999
v -0.5 0.4 -0.5
v -0.5 0.6 -0.5
v -0.5 0.8 -0.5
v -0.4 0.6 -0.5
v -0.4 0.8 -0.5
v -0.4 0.9 -0.5
v -0.3 0.2 -0.5
v -0.3 0.4 -0.5
v -0.3 0.5 -0.5
v -0.3 0.6 -0.5
v -0.3 0.8 -0.5
v -0.3 0.9 -0.5
v -0.2 0.2 -0.5
v -0.2 0.5 -0.5
v 0.1 0.2 -0.5
v 0.1 0.5 -0.5
v 0.2 0.2 -0.5
v 0.2 0.4 -0.5
v 0.2 0.5 -0.5
v 0.2 0.6 -0.5
v 0.2 0.8 -0.5
v 0.2 0.9 -0.5
v 0.3 0.6 -0.5
v 0.3 0.8 -0.5
v 0.3 0.9 -0.5
v 0.4 0.4 -0.5
v 0.4 0.6 -0.5
v 0.4 0.8 -0.5
v -1 2 -0.6
v -1 2.3 -0.6
v -0.9 1.9 -0.6
v -0.9 2 -0.6
v -0.9 2.3 -0.6
v -0.9 2.4 -0.6
v -0.8 1.8 -0.6
v -0.8 1.9 -0.6
v -0.8 2.4 -0.6
v -0.8 2.5 -0.6
v -0.7 1.7 -0.6
v -0.7 1.8 -0.6
v -0.6 1.7 -0.6
v -0.6 1.9 -0.6
v -0.5 1.6 -0.6
v -0.5 1.7 -0.6
v -0.5 1.9 -0.6
v -0.5 2 -0.6
v -0.5 2.4 -0.6
v -0.5 2.5 -0.6
v -0.4 0 -0.6
v -0.4 0.2 -0.6
v -0.4 1.6 -0.6
v -0.4 1.7 -0.6
v -0.4 2.3 -0.6
v -0.4 2.4 -0.6
v -0.3 0.5 -0.6
v -0.3 0.7 -0.6
v -0.3 0.9 -0.6
v -0.3 2 -0.6
v -0.3 2.3 -0.6
v -0.1 0 -0.6
v -0.1 0.2 -0.6
v 0 0 -0.6
v 0 0.2 -0.6
v 0.2 0.5 -0.6
v 0.2 0.7 -0.6
v 0.2 0.9 -0.6
v 0.2 1.6 -0.6
v 0.2 1.7 -0.6
v 0.2 2 -0.6
v 0.2 2.3 -0.6
v 0.3 0 -0.6
v 0.3 0.2 -0.6
v 0.3 2.3 -0.6
v 0.3 2.4 -0.6
v 0.4 1.6 -0.6
v 0.4 1.7 -0.6
v 0.4 1.9 -0.6
v 0.4 2 -0.6
v 0.4 2.4 -0.6
v 0.4 2.5 -0.6
v 0.5 1.8 -0.6
v 0.5 1.9 -0.6
v 0.7 1.8 -0.6
v 0.7 1.9 -0.6
v 0.7 2.4 -0.6
v 0.7 2.5 -0.6
v 0.8 1.9 -0.6
v 0.8 2 -0.6
v 0.8 2.3 -0.6
v 0.8 2.4 -0.6
v 0.9 2 -0.6
v 0.9 2.3 -0.6
v -0.7 1 -0.7
v -0.7 1.1 -0.7
v -0.7 1.3 -0.7
v -0.7 1.4 -0.7
v -0.6 1 -0.7
v -0.6 1.1 -0.7
v -0.6 1.3 -0.7
v -0.6 1.4 -0.7
v -0.6 1.8 -0.7
v -0.6 1.9 -0.7
v -0.5 0.9 -0.7
v -0.5 1 -0.7
v -0.5 1.8 -0.7
v -0.5 1.9 -0.7
v -0.5 2 -0.7
v 0.4 0.9 -0.7
v 0.4 1 -0.7
v 0.4 1.8 -0.7
v 0.4 1.9 -0.7
v 0.4 2 -0.7
v 0.5 1 -0.7
v 0.5 1.1 -0.7
v 0.5 1.3 -0.7
v 0.5 1.4 -0.7
v 0.5 1.8 -0.7
v 0.5 1.9 -0.7
v 0.6 1 -0.7
v 0.6 1.1 -0.7
v 0.6 1.3 -0.7
v 0.6 1.4 -0.7
v -0.7 1.1 -0.8
v -0.7 1.3 -0.8
v -0.6 1 -0.8
v -0.6 1.1 -0.8
v -0.6 1.3 -0.8
v -0.6 1.8 -0.8
v -0.5 1.8 -0.8
v -0.5 1.9 -0.8
v 0.4 1.8 -0.8
v 0.4 1.9 -0.8
v 0.5 1 -0.8
v 0.5 1.1 -0.8
v 0.5 1.3 -0.8
v 0.5 1.8 -0.8
v 0.6 1.1 -0.8
v 0.6 1.3 -0.8
v -0.4 0 -0.2
v -0.1 0 -0.2
v 0 0 -0.2
v 0.3 0 -0.2
v -0.4 0 -0.6
v -0.1 0 -0.6
v 0 0 -0.6
v 0.3 0 -0.6
v -0.5 0.4 -0.3
v -0.3 0.4 -0.3
v 0.2 0.4 -0.3
v 0.4 0.4 -0.3
v -0.3 0.4 -0.4
v 0.2 0.4 -0.4
v -0.5 0.4 -0.5
v -0.3 0.4 -0.5
v 0.2 0.4 -0.5
v 0.4 0.4 -0.5
v -0.3 0.5 -0.3
v 0.2 0.5 -0.3
v -0.3 0.5 -0.4
v -0.2 0.5 -0.4
v 0.1 0.5 -0.4
v 0.2 0.5 -0.4
v -0.3 0.5 -0.5
v -0.2 0.5 -0.5
v 0.1 0.5 -0.5
v 0.2 0.5 -0.5
v -0.3 0.5 -0.6
v 0.2 0.5 -0.6
v -0.4 0.8 -0.4
v -0.3 0.8 -0.4
v 0.2 0.8 -0.4
v 0.3 0.8 -0.4
v -0.4 0.8 -0.5
v -0.3 0.8 -0.5
v 0.2 0.8 -0.5
v 0.3 0.8 -0.5
v -0.4 0.9 -5.96046e-08
v 0.3 0.9 -5.96046e-08
v -0.5 0.9 -0.1
v -0.4 0.9 -0.1
v 0.3 0.9 -0.1
v 0.4 0.9 -0.1
v -0.3 0.9 -0.3
v 0.2 0.9 -0.3
v -0.4 0.9 -0.4
v -0.3 0.9 -0.4
v 0.2 0.9 -0.4
v 0.3 0.9 -0.4
v -0.4 0.9 -0.5
v -0.3 0.9 -0.5
v 0.2 0.9 -0.5
v 0.3 0.9 -0.5
v -0.5 0.9 -0.6
v -0.3 0.9 -0.6
v 0.2 0.9 -0.6
v 0.4 0.9 -0.6
v -0.5 0.9 -0.7
v 0.4 0.9 -0.7
v -0.2 1 0.0999999
v 0.1 1 0.0999999
v -0.5 1 -5.96046e-08
v -0.4 1 -5.96046e-08
v -0.2 1 -5.96046e-08
v 0.1 1 -5.96046e-08
v 0.3 1 -5.96046e-08
v 0.4 1 -5.96046e-08
v -0.7 1 -0.1
v -0.5 1 -0.1
v -0.4 1 -0.1
v 0.3 1 -0.1
v 0.4 1 -0.1
v 0.6 1 -0.1
v -0.7 1 -0.6
v -0.5 1 -0.6
v 0.4 1 -0.6
v 0.6 1 -0.6
v -0.7 1 -0.7
v -0.6 1 -0.7
v -0.5 1 -0.7
v 0.4 1 -0.7
v 0.5 1 -0.7
v 0.6 1 -0.7
v -0.6 1 -0.8
v 0.5 1 -0.8
v -0.7 1.1 -0.7
v -0.6 1.1 -0.7
v 0.5 1.1 -0.7
v 0.6 1.1 -0.7
v -0.7 1.1 -0.8
v -0.6 1.1 -0.8
v 0.5 1.1 -0.8
v 0.6 1.1 -0.8
v -0.1 1.2 0.2
v 0 1.2 0.2
v -0.1 1.2 0.0999999
v 0 1.2 0.0999999
v -0.7 1.7 -0.5
v -0.6 1.7 -0.5
v -0.7 1.7 -0.6
v -0.6 1.7 -0.6
v -0.5 1.7 -0.6
v -0.4 1.7 -0.6
v 0.2 1.7 -0.6
v 0.4 1.7 -0.6
v -0.5 1.7 -0.7
v -0.4 1.7 -0.7
v 0.2 1.7 -0.7
v 0.4 1.7 -0.7
v -0.8 1.8 -0.4
v -0.6 1.8 -0.4
v 0.5 1.8 -0.4
v 0.7 1.8 -0.4
v -0.7 1.8 -0.5
v -0.6 1.8 -0.5
v -0.8 1.8 -0.6
v -0.7 1.8 -0.6
v 0.5 1.8 -0.6
v 0.7 1.8 -0.6
v -0.9 1.9 -0.4
v -0.8 1.9 -0.4
v 0.7 1.9 -0.4
v 0.8 1.9 -0.4
v -0.9 1.9 -0.6
v -0.8 1.9 -0.6
v 0.7 1.9 -0.6
v 0.8 1.9 -0.6
v -1 2 -0.4
v -0.9 2 -0.4
v 0.8 2 -0.4
v 0.9 2 -0.4
v -1 2 -0.6
v -0.9 2 -0.6
v 0.8 2 -0.6
v 0.9 2 -0.6
v -0.4 0.2 -0.2
v -0.1 0.2 -0.2
v 0 0.2 -0.2
v 0.3 0.2 -0.2
v -0.3 0.2 -0.4
v -0.2 0.2 -0.4
v 0.1 0.2 -0.4
v 0.2 0.2 -0.4
v -0.3 0.2 -0.5
v -0.2 0.2 -0.5
v 0.1 0.2 -0.5
v 0.2 0.2 -0.5
v -0.4 0.2 -0.6
v -0.1 0.2 -0.6
v 0 0.2 -0.6
v 0.3 0.2 -0.6
v -0.5 0.6 -0.3
v -0.3 0.6 -0.3
v 0.2 0.6 -0.3
v 0.4 0.6 -0.3
v -0.5 0.6 -0.4
v -0.4 0.6 -0.4
v 0.3 0.6 -0.4
v 0.4 0.6 -0.4
v -0.4 0.6 -0.5
v -0.3 0.6 -0.5
v 0.2 0.6 -0.5
v 0.3 0.6 -0.5
v -0.5 0.8 -0.4
v -0.4 0.8 -0.4
v 0.3 0.8 -0.4
v 0.4 0.8 -0.4
v -0.5 0.8 -0.5
v -0.4 0.8 -0.5
v 0.3 0.8 -0.5
v 0.4 0.8 -0.5
v -0.5 1.2 -5.96046e-08
v -0.4 1.2 -5.96046e-08
v 0.3 1.2 -5.96046e-08
v 0.4 1.2 -5.96046e-08
v -0.5 1.2 -0.1
v -0.4 1.2 -0.1
v 0.3 1.2 -0.1
v 0.4 1.2 -0.1
v -0.2 1.3 0.0999999
v -0.1 1.3 0.0999999
v 0 1.3 0.0999999
v 0.1 1.3 0.0999999
v -0.2 1.3 -5.96046e-08
v 0.1 1.3 -5.96046e-08
v -0.2 1.3 -0.1
v 0.1 1.3 -0.1
v -0.7 1.3 -0.7
v -0.6 1.3 -0.7
v 0.5 1.3 -0.7
v 0.6 1.3 -0.7
v -0.7 1.3 -0.8
v -0.6 1.3 -0.8
v 0.5 1.3 -0.8
v 0.6 1.3 -0.8
v -0.1 1.4 0.2
v 0 1.4 0.2
v -0.1 1.4 0.0999999
v 0 1.4 0.0999999
v -0.7 1.4 -0.1
v -0.6 1.4 -0.1
v 0.5 1.4 -0.1
v 0.6 1.4 -0.1
v -0.6 1.4 -0.3
v 0.5 1.4 -0.3
v -0.7 1.4 -0.6
v -0.6 1.4 -0.6
v 0.5 1.4 -0.6
v 0.6 1.4 -0.6
v -0.7 1.4 -0.7
v -0.6 1.4 -0.7
v 0.5 1.4 -0.7
v 0.6 1.4 -0.7
v -0.4 1.6 -5.96046e-08
v -0.2 1.6 -5.96046e-08
v 0.1 1.6 -5.96046e-08
v 0.3 1.6 -5.96046e-08
v -0.4 1.6 -0.1
v -0.2 1.6 -0.1
v 0.1 1.6 -0.1
v 0.3 1.6 -0.1
v -0.5 1.6 -0.6
v -0.4 1.6 -0.6
v 0.2 1.6 -0.6
v 0.4 1.6 -0.6
v -0.5 1.6 -0.7
v -0.4 1.6 -0.7
v 0.2 1.6 -0.7
v 0.4 1.6 -0.7
v -0.6 1.8 -0.1
v -0.5 1.8 -0.1
v 0.4 1.8 -0.1
v 0.5 1.8 -0.1
v -0.6 1.8 -0.2
v -0.5 1.8 -0.2
v 0.4 1.8 -0.2
v 0.5 1.8 -0.2
v -0.6 1.8 -0.7
v -0.5 1.8 -0.7
v 0.4 1.8 -0.7
v 0.5 1.8 -0.7
v -0.6 1.8 -0.8
v -0.5 1.8 -0.8
v 0.4 1.8 -0.8
v 0.5 1.8 -0.8
v -0.5 1.9 -0.1
v 0.4 1.9 -0.1
v -0.6 1.9 -0.2
v -0.5 1.9 -0.2
v -0.4 1.9 -0.2
v 0.3 1.9 -0.2
v 0.4 1.9 -0.2
v 0.5 1.9 -0.2
v -0.5 1.9 -0.3
v -0.4 1.9 -0.3
v 0.3 1.9 -0.3
v 0.4 1.9 -0.3
v -0.6 1.9 -0.4
v -0.5 1.9 -0.4
v 0.4 1.9 -0.4
v 0.5 1.9 -0.4
v -0.6 1.9 -0.6
v -0.5 1.9 -0.6
v 0.4 1.9 -0.6
v 0.5 1.9 -0.6
v -0.6 1.9 -0.7
v -0.5 1.9 -0.7
v 0.4 1.9 -0.7
v 0.5 1.9 -0.7
v -0.5 1.9 -0.8
v 0.4 1.9 -0.8
v -0.4 2 -0.2
v 0.3 2 -0.2
v -0.5 2 -0.3
v -0.4 2 -0.3
v 0.3 2 -0.3
v 0.4 2 -0.3
v -0.5 2 -0.4
v -0.3 2 -0.4
v 0.2 2 -0.4
v 0.4 2 -0.4
v -0.5 2 -0.6
v -0.3 2 -0.6
v 0.2 2 -0.6
v 0.4 2 -0.6
v -0.5 2 -0.7
v 0.4 2 -0.7
v -1 2.3 -0.4
v -0.9 2.3 -0.4
v -0.4 2.3 -0.4
v -0.3 2.3 -0.4
v 0.2 2.3 -0.4
v 0.3 2.3 -0.4
v 0.8 2.3 -0.4
v 0.9 2.3 -0.4
v -1 2.3 -0.6
v -0.9 2.3 -0.6
v -0.4 2.3 -0.6
v -0.3 2.3 -0.6
v 0.2 2.3 -0.6
v 0.3 2.3 -0.6
v 0.8 2.3 -0.6
v 0.9 2.3 -0.6
v -0.9 2.4 -0.4
v -0.8 2.4 -0.4
v -0.5 2.4 -0.4
v -0.4 2.4 -0.4
v 0.3 2.4 -0.4
v 0.4 2.4 -0.4
v 0.7 2.4 -0.4
v 0.8 2.4 -0.4
v -0.9 2.4 -0.6
v -0.8 2.4 -0.6
v -0.5 2.4 -0.6
v -0.4 2.4 -0.6
v 0.3 2.4 -0.6
v 0.4 2.4 -0.6
v 0.7 2.4 -0.6
v 0.8 2.4 -0.6
v -0.8 2.5 -0.4
v -0.5 2.5 -0.4
v 0.4 2.5 -0.4
v 0.7 2.5 -0.4
v -0.8 2.5 -0.6
v -0.5 2.5 -0.6
v 0.4 2.5 -0.6
v 0.7 2.5 -0.6

# faces
f 3/5/1 2/5/1 1/5/1
f 4/5/1 2/5/1 3/5/1
f 7/5/1 6/5/1 5/5/1
f 8/5/1 6/5/1 7/5/1
f 11/5/1 10/5/1 9/5/1
f 12/5/1 10/5/1 11/5/1
f 15/5/1 14/5/1 13/5/1
f 16/5/1 14/5/1 15/5/1
f 19/5/1 18/5/1 17/5/1
f 20/5/1 18/5/1 19/5/1
f 24/5/1 23/5/1 22/5/1
f 26/5/1 24/5/1 22/5/1
f 26/5/1 25/5/1 24/5/1
f 27/5/1 25/5/1 26/5/1
f 28/2/1 22/2/1 21/2/1
f 29/5/1 26/5/1 22/5/1
f 29/2/1 22/2/1 28/2/1
f 30/5/1 26/5/1 29/5/1
f 33/5/1 32/5/1 31/5/1
f 34/5/1 32/5/1 33/5/1
f 37/5/1 36/5/1 35/5/1
f 38/5/1 36/5/1 37/5/1
f 44/5/1 40/5/1 39/5/1
f 45/2/1 42/2/1 41/2/1
f 46/5/1 43/5/1 42/5/1
f 46/2/1 42/2/1 45/2/1
f 46/5/1 44/5/1 43/5/1
f 47/2/1 45/2/1 41/2/1
f 48/5/1 46/5/1 45/5/1
f 48/2/1 45/2/1 47/2/1
f 49/5/1 44/5/1 46/5/1
f 49/5/1 46/5/1 48/5/1
f 50/5/1 44/5/1 49/5/1
f 51/5/1 48/5/1 47/5/1
f 51/5/1 49/5/1 48/5/1
f 52/5/1 49/5/1 51/5/1
f 53/5/1 49/5/1 52/5/1
f 54/5/1 49/5/1 53/5/1
f 55/5/1 44/5/1 50/5/1
f 55/5/1 40/5/1 44/5/1
f 56/5/1 40/5/1 55/5/1
f 57/5/1 53/5/1 52/5/1
f 58/5/1 53/5/1 57/5/1
f 59/5/1 55/5/1 50/5/1
f 60/5/1 55/5/1 59/5/1
f 63/4/1 62/4/1 61/4/1
f 64/4/1 62/4/1 63/4/1
f 65/4/1 62/4/1 64/4/1
f 66/5/1 65/5/1 64/5/1
f 67/5/1 65/5/1 66/5/1
f 72/2/1 69/2/1 68/2/1
f 73/5/1 70/5/1 69/5/1
f 73/2/1 69/2/1 72/2/1
f 74/5/1 70/5/1 73/5/1
f 75/2/1 72/2/1 71/2/1
f 76/2/1 72/2/1 75/2/1
f 81/5/1 78/5/1 77/5/1
f 82/5/1 78/5/1 81/5/1
f 86/5/1 80/5/1 79/5/1
f 87/5/1 80/5/1 86/5/1
f 88/5/1 84/5/1 83/5/1
f 89/5/1 84/5/1 88/5/1
f 90/5/1 86/5/1 85/5/1
f 91/5/1 86/5/1 90/5/1
f 94/1/1 93/1/1 92/1/1
f 95/1/1 93/1/1 94/1/1
f 100/5/1 97/5/1 96/5/1
f 101/5/1 97/5/1 100/5/1
f 102/2/1 99/2/1 98/2/1
f 103/2/1 99/2/1 102/2/1
f 106/4/1 105/4/1 104/4/1
f 107/4/1 105/4/1 106/4/1
f 110/5/1 109/5/1 108/5/1
f 111/5/1 109/5/1 110/5/1
f 114/5/1 113/5/1 112/5/1
f 115/5/1 113/5/1 114/5/1
f 118/5/1 117/5/1 116/5/1
f 119/5/1 117/5/1 118/5/1
f 123/3/1 121/3/1 120/3/1
f 124/3/1 123/3/1 122/3/1
f 125/3/1 121/3/1 123/3/1
f 125/3/1 123/3/1 124/3/1
f 126/5/1 125/5/1 124/5/1
f 127/5/1 125/5/1 126/5/1
f 128/5/1 126/5/1 124/5/1
f 129/5/1 126/5/1 128/5/1
f 130/5/1 125/5/1 127/5/1
f 131/5/1 125/5/1 130/5/1
f 134/2/1 133/2/1 132/2/1
f 135/2/1 134/2/1 132/2/1
f 136/2/1 134/2/1 135/2/1
f 139/5/1 138/5/1 137/5/1
f 140/5/1 139/5/1 137/5/1
f 141/5/1 139/5/1 140/5/1
f 144/1/1 143/1/1 142/1/1
f 145/1/1 143/1/1 144/1/1
f 148/5/1 147/5/1 146/5/1
f 149/5/1 147/5/1 148/5/1
f 152/5/1 151/5/1 150/5/1
f 153/5/1 151/5/1 152/5/1
f 154/4/1 153/4/1 152/4/1
f 155/4/1 153/4/1 154/4/1
f 158/4/1 157/4/1 156/4/1
f 159/4/1 157/4/1 158/4/1
f 162/5/1 161/5/1 160/5/1
f 163/5/1 161/5/1 162/5/1
f 166/5/1 165/5/1 164/5/1
f 167/5/1 165/5/1 166/5/1
f 170/5/1 169/5/1 168/5/1
f 171/5/1 169/5/1 170/5/1
f 174/5/1 173/5/1 172/5/1
f 175/5/1 173/5/1 174/5/1
f 178/5/1 177/5/1 176/5/1
f 179/5/1 177/5/1 178/5/1
f 180/5/2 181/5/2 182/5/2
f 182/5/2 181/5/2 183/5/2
f 184/5/2 185/5/2 186/5/2
f 186/5/2 185/5/2 187/5/2
f 188/5/2 189/5/2 190/5/2
f 190/5/2 189/5/2 191/5/2
f 192/5/2 193/5/2 194/5/2
f 194/5/2 193/5/2 195/5/2
f 196/4/2 197/4/2 198/4/2
f 198/4/2 197/4/2 199/4/2
f 200/5/2 201/5/2 202/5/2
f 202/5/2 201/5/2 203/5/2
f 204/5/2 205/5/2 206/5/2
f 206/5/2 205/5/2 207/5/2
f 208/5/2 209/5/2 210/5/2
f 210/5/2 209/5/2 211/5/2
f 210/4/2 211/4/2 212/4/2
f 212/4/2 211/4/2 213/4/2
f 214/1/2 215/1/2 216/1/2
f 216/1/2 215/1/2 217/1/2
f 218/5/2 219/5/2 220/5/2
f 218/5/2 220/5/2 221/5/2
f 221/5/2 220/5/2 222/5/2
f 223/2/2 224/2/2 225/2/2
f 223/2/2 225/2/2 226/2/2
f 226/2/2 225/2/2 227/2/2
f 228/5/2 229/5/2 230/5/2
f 230/5/2 229/5/2 231/5/2
f 232/3/2 233/3/2 235/3/2
f 234/3/2 235/3/2 236/3/2
f 235/3/2 233/3/2 237/3/2
f 236/3/2 235/3/2 237/3/2
f 236/5/2 237/5/2 238/5/2
f 238/5/2 237/5/2 239/5/2
f 236/5/2 238/5/2 240/5/2
f 240/5/2 238/5/2 241/5/2
f 239/5/2 237/5/2 242/5/2
f 242/5/2 237/5/2 243/5/2
f 244/5/2 245/5/2 246/5/2
f 246/5/2 245/5/2 247/5/2
f 248/1/2 249/1/2 250/1/2
f 250/1/2 249/1/2 251/1/2
f 252/5/2 253/5/2 256/5/2
f 256/5/2 253/5/2 257/5/2
f 254/2/2 255/2/2 258/2/2
f 258/2/2 255/2/2 259/2/2
f 260/4/2 261/4/2 262/4/2
f 262/4/2 261/4/2 263/4/2
f 264/5/2 265/5/2 266/5/2
f 266/5/2 265/5/2 267/5/2
f 268/4/2 269/4/2 270/4/2
f 270/4/2 269/4/2 271/4/2
f 271/4/2 269/4/2 272/4/2
f 271/5/2 272/5/2 273/5/2
f 273/5/2 272/5/2 274/5/2
f 275/2/2 276/2/2 279/2/2
f 276/5/2 277/5/2 280/5/2
f 279/2/2 276/2/2 280/2/2
f 280/5/2 277/5/2 281/5/2
f 278/2/2 279/2/2 282/2/2
f 282/2/2 279/2/2 283/2/2
f 284/5/2 285/5/2 288/5/2
f 288/5/2 285/5/2 289/5/2
f 286/5/2 287/5/2 293/5/2
f 293/5/2 287/5/2 294/5/2
f 290/5/2 291/5/2 295/5/2
f 295/5/2 291/5/2 296/5/2
f 292/5/2 293/5/2 297/5/2
f 297/5/2 293/5/2 298/5/2
f 299/5/2 300/5/2 301/5/2
f 301/5/2 300/5/2 302/5/2
f 303/5/2 304/5/2 308/5/2
f 305/2/2 306/2/2 309/2/2
f 306/5/2 307/5/2 310/5/2
f 309/2/2 306/2/2 310/2/2
f 307/5/2 308/5/2 310/5/2
f 305/2/2 309/2/2 311/2/2
f 309/5/2 310/5/2 312/5/2
f 311/2/2 309/2/2 312/2/2
f 311/5/2 312/5/2 313/5/2
f 312/5/2 310/5/2 314/5/2
f 313/5/2 312/5/2 314/5/2
f 310/5/2 308/5/2 315/5/2
f 314/5/2 310/5/2 315/5/2
f 315/5/2 308/5/2 316/5/2
f 308/5/2 304/5/2 317/5/2
f 316/5/2 308/5/2 317/5/2
f 317/5/2 304/5/2 318/5/2
f 314/5/2 315/5/2 319/5/2
f 319/5/2 315/5/2 320/5/2
f 316/5/2 317/5/2 321/5/2
f 321/5/2 317/5/2 322/5/2
f 324/5/2 325/5/2 326/5/2
f 324/5/2 326/5/2 328/5/2
f 326/5/2 327/5/2 328/5/2
f 328/5/2 327/5/2 329/5/2
f 323/2/2 324/2/2 330/2/2
f 324/5/2 328/5/2 331/5/2
f 330/2/2 324/2/2 331/2/2
f 331/5/2 328/5/2 332/5/2
f 333/5/2 334/5/2 335/5/2
f 335/5/2 334/5/2 336/5/2
f 337/5/2 338/5/2 339/5/2
f 339/5/2 338/5/2 340/5/2
f 341/5/2 342/5/2 343/5/2
f 343/5/2 342/5/2 344/5/2
f 345/5/2 346/5/2 347/5/2
f 347/5/2 346/5/2 348/5/2
f 349/5/2 350/5/2 351/5/2
f 351/5/2 350/5/2 352/5/2
f 355/5/3 354/5/3 353/5/3
f 356/5/3 354/5/3 355/5/3
f 359/2/3 358/2/3 357/2/3
f 360/2/3 358/2/3 359/2/3
f 361/2/3 359/2/3 357/2/3
f 363/2/3 361/2/3 357/2/3
f 363/2/3 362/2/3 361/2/3
f 364/2/3 362/2/3 363/2/3
f 368/2/3 366/2/3 365/2/3
f 369/2/3 366/2/3 368/2/3
f 371/2/3 368/2/3 367/2/3
f 371/4/3 370/4/3 369/4/3
f 371/2/3 369/2/3 368/2/3
f 372/4/3 370/4/3 371/4/3
f 373/2/3 371/2/3 367/2/3
f 374/5/3 372/5/3 371/5/3
f 374/2/3 371/2/3 373/2/3
f 375/5/3 372/5/3 374/5/3
f 376/4/3 370/4/3 372/4/3
f 376/5/3 372/5/3 375/5/3
f 377/4/3 370/4/3 376/4/3
f 378/2/3 373/2/3 367/2/3
f 383/2/3 379/2/3 378/2/3
f 383/5/3 380/5/3 379/5/3
f 383/5/3 381/5/3 380/5/3
f 384/4/3 382/4/3 381/4/3
f 384/5/3 381/5/3 383/5/3
f 385/2/3 378/2/3 367/2/3
f 385/2/3 383/2/3 378/2/3
f 386/2/3 383/2/3 385/2/3
f 387/4/3 384/4/3 383/4/3
f 387/2/3 383/2/3 386/2/3
f 388/4/3 382/4/3 384/4/3
f 388/4/3 384/4/3 387/4/3
f 389/2/3 387/2/3 386/2/3
f 390/2/3 387/2/3 389/2/3
f 393/2/3 392/2/3 391/2/3
f 397/2/3 393/2/3 391/2/3
f 397/2/3 394/2/3 393/2/3
f 398/2/3 394/2/3 397/2/3
f 399/5/3 395/5/3 394/5/3
f 399/2/3 394/2/3 398/2/3
f 400/5/3 395/5/3 399/5/3
f 402/2/3 397/2/3 396/2/3
f 403/2/3 397/2/3 402/2/3
f 404/2/3 400/2/3 399/2/3
f 404/2/3 399/2/3 398/2/3
f 405/2/3 400/2/3 404/2/3
f 406/2/3 400/2/3 405/2/3
f 407/5/3 401/5/3 400/5/3
f 407/2/3 400/2/3 406/2/3
f 410/2/3 406/2/3 405/2/3
f 411/5/3 407/5/3 406/5/3
f 411/2/3 406/2/3 410/2/3
f 412/2/3 409/2/3 408/2/3
f 412/2/3 410/2/3 409/2/3
f 413/2/3 410/2/3 412/2/3
f 414/5/3 411/5/3 410/5/3
f 414/2/3 410/2/3 413/2/3
f 415/5/3 407/5/3 411/5/3
f 415/5/3 411/5/3 414/5/3
f 416/5/3 407/5/3 415/5/3
f 416/2/3 415/2/3 414/2/3
f 417/5/3 401/5/3 407/5/3
f 417/5/3 407/5/3 416/5/3
f 421/2/3 416/2/3 414/2/3
f 421/2/3 417/2/3 416/2/3
f 422/2/3 419/2/3 418/2/3
f 423/2/3 419/2/3 422/2/3
f 424/2/3 421/2/3 420/2/3
f 425/2/3 417/2/3 421/2/3
f 425/2/3 421/2/3 424/2/3
f 426/5/3 401/5/3 417/5/3
f 426/2/3 417/2/3 425/2/3
f 427/5/3 401/5/3 426/5/3
f 428/2/3 425/2/3 424/2/3
f 428/2/3 424/2/3 423/2/3
f 429/5/3 426/5/3 425/5/3
f 429/2/3 425/2/3 428/2/3
f 430/5/3 426/5/3 429/5/3
f 431/2/3 428/2/3 423/2/3
f 432/2/3 428/2/3 431/2/3
f 435/5/3 434/5/3 433/5/3
f 436/5/3 434/5/3 435/5/3
f 441/1/3 438/1/3 437/1/3
f 442/1/3 438/1/3 441/1/3
f 445/1/3 444/1/3 443/1/3
f 446/1/3 444/1/3 445/1/3
f 447/5/3 440/5/3 439/5/3
f 448/5/3 440/5/3 447/5/3
f 451/5/3 450/5/3 449/5/3
f 452/5/3 450/5/3 451/5/3
f 457/5/3 456/5/3 455/5/3
f 458/5/3 456/5/3 457/5/3
f 459/4/3 454/4/3 453/4/3
f 460/4/3 454/4/3 459/4/3
f 461/4/3 454/4/3 460/4/3
f 464/3/3 461/3/3 460/3/3
f 464/3/3 462/3/3 461/3/3
f 465/5/3 463/5/3 462/5/3
f 465/3/3 462/3/3 464/3/3
f 466/3/3 464/3/3 460/3/3
f 466/4/3 465/4/3 464/4/3
f 467/5/3 463/5/3 465/5/3
f 467/4/3 465/4/3 466/4/3
f 468/3/3 466/3/3 460/3/3
f 468/3/3 467/3/3 466/3/3
f 469/5/3 463/5/3 467/5/3
f 469/3/3 467/3/3 468/3/3
f 470/3/3 468/3/3 460/3/3
f 470/4/3 469/4/3 468/4/3
f 471/5/3 463/5/3 469/5/3
f 471/4/3 469/4/3 470/4/3
f 473/3/3 470/3/3 460/3/3
f 473/3/3 471/3/3 470/3/3
f 474/3/3 471/3/3 473/3/3
f 475/5/3 463/5/3 471/5/3
f 475/3/3 471/3/3 474/3/3
f 476/5/3 463/5/3 475/5/3
f 479/4/3 474/4/3 473/4/3
f 479/4/3 473/4/3 472/4/3
f 480/4/3 474/4/3 479/4/3
f 481/5/3 478/5/3 477/5/3
f 482/5/3 478/5/3 481/5/3
f 486/5/3 484/5/3 483/5/3
f 487/5/3 484/5/3 486/5/3
f 490/5/3 486/5/3 485/5/3
f 490/5/3 488/5/3 487/5/3
f 490/5/3 487/5/3 486/5/3
f 491/5/3 488/5/3 490/5/3
f 493/5/3 490/5/3 489/5/3
f 493/5/3 492/5/3 491/5/3
f 493/5/3 491/5/3 490/5/3
f 494/5/3 492/5/3 493/5/3
f 497/5/3 492/5/3 494/5/3
f 498/5/3 492/5/3 497/5/3
f 499/5/3 492/5/3 498/5/3
f 500/5/3 492/5/3 499/5/3
f 501/5/3 496/5/3 495/5/3
f 502/5/3 496/5/3 501/5/3
f 504/5/3 499/5/3 498/5/3
f 505/5/3 499/5/3 504/5/3
f 509/5/3 503/5/3 502/5/3
f 510/5/3 503/5/3 509/5/3
f 511/5/3 504/5/3 498/5/3
f 512/5/3 504/5/3 511/5/3
f 513/5/3 508/5/3 507/5/3
f 513/5/3 507/5/3 506/5/3
f 514/5/3 508/5/3 513/5/3
f 517/5/3 516/5/3 515/5/3
f 518/5/3 516/5/3 517/5/3
f 519/5/3 516/5/3 518/5/3
f 525/5/3 521/5/3 520/5/3
f 526/5/3 521/5/3 525/5/3
f 527/5/3 523/5/3 522/5/3
f 529/5/3 525/5/3 524/5/3
f 530/5/3 525/5/3 529/5/3
f 532/5/3 527/5/3 522/5/3
f 532/5/3 528/5/3 527/5/3
f 533/5/3 528/5/3 532/5/3
f 536/5/3 534/5/3 533/5/3
f 536/5/3 532/5/3 531/5/3
f 536/5/3 533/5/3 532/5/3
f 537/5/3 536/5/3 535/5/3
f 538/5/3 534/5/3 536/5/3
f 538/5/3 536/5/3 537/5/3
f 539/5/3 534/5/3 538/5/3
f 540/5/3 534/5/3 539/5/3
f 541/5/3 539/5/3 538/5/3
f 542/5/3 539/5/3 541/5/3
f 543/5/3 539/5/3 542/5/3
f 544/5/3 539/5/3 543/5/3
f 545/5/3 543/5/3 542/5/3
f 546/5/3 543/5/3 545/5/3
f 549/5/3 548/5/3 547/5/3
f 550/5/3 548/5/3 549/5/3
f 553/5/3 552/5/3 551/5/3
f 554/5/3 552/5/3 553/5/3
f 557/5/3 556/5/3 555/5/3
f 558/5/3 556/5/3 557/5/3
f 559/5/4 560/5/4 561/5/4
f 561/5/4 560/5/4 562/5/4
f 563/4/4 564/4/4 566/4/4
f 564/5/4 565/5/4 566/5/4
f 566/5/4 565/5/4 567/5/4
f 563/4/4 566/4/4 570/4/4
f 570/4/4 566/4/4 571/4/4
f 571/4/4 566/4/4 572/4/4
f 567/5/4 568/5/4 573/5/4
f 573/5/4 568/5/4 574/5/4
f 569/5/4 570/5/4 575/5/4
f 570/5/4 571/5/4 575/5/4
f 575/5/4 571/5/4 576/5/4
f 577/5/4 578/5/4 579/5/4
f 579/5/4 578/5/4 580/5/4
f 580/5/4 578/5/4 581/5/4
f 580/4/4 581/4/4 585/4/4
f 581/4/4 582/4/4 585/4/4
f 583/5/4 584/5/4 586/5/4
f 586/5/4 584/5/4 587/5/4
f 580/4/4 585/4/4 588/4/4
f 585/5/4 586/5/4 589/5/4
f 588/4/4 585/4/4 589/4/4
f 589/5/4 586/5/4 590/5/4
f 591/5/4 592/5/4 594/5/4
f 594/5/4 592/5/4 595/5/4
f 593/5/4 594/5/4 598/5/4
f 595/5/4 596/5/4 598/5/4
f 594/5/4 595/5/4 598/5/4
f 598/5/4 596/5/4 599/5/4
f 597/5/4 598/5/4 602/5/4
f 599/5/4 600/5/4 602/5/4
f 598/5/4 599/5/4 602/5/4
f 601/5/4 602/5/4 603/5/4
f 602/5/4 600/5/4 604/5/4
f 603/5/4 602/5/4 604/5/4
f 604/5/4 600/5/4 607/5/4
f 607/5/4 600/5/4 608/5/4
f 608/5/4 600/5/4 609/5/4
f 609/5/4 600/5/4 610/5/4
f 605/2/4 606/2/4 613/2/4
f 613/2/4 606/2/4 614/2/4
f 608/5/4 609/5/4 615/5/4
f 615/5/4 609/5/4 616/5/4
f 608/5/4 615/5/4 620/5/4
f 620/5/4 615/5/4 621/5/4
f 611/1/4 612/1/4 622/1/4
f 622/1/4 612/1/4 623/1/4
f 617/3/4 618/3/4 626/3/4
f 618/5/4 619/5/4 627/5/4
f 626/3/4 618/3/4 627/3/4
f 627/5/4 619/5/4 628/5/4
f 624/1/4 625/1/4 633/1/4
f 633/1/4 625/1/4 634/1/4
f 631/5/4 632/5/4 635/5/4
f 629/2/4 630/2/4 637/2/4
f 637/2/4 630/2/4 638/2/4
f 631/5/4 635/5/4 640/5/4
f 635/5/4 636/5/4 640/5/4
f 640/5/4 636/5/4 641/5/4
f 641/5/4 642/5/4 644/5/4
f 639/5/4 640/5/4 644/5/4
f 640/5/4 641/5/4 644/5/4
f 643/5/4 644/5/4 645/5/4
f 644/5/4 642/5/4 646/5/4
f 645/5/4 644/5/4 646/5/4
f 646/5/4 642/5/4 647/5/4
f 647/5/4 642/5/4 648/5/4
f 646/5/4 647/5/4 649/5/4
f 649/5/4 647/5/4 650/5/4
f 650/5/4 647/5/4 651/5/4
f 651/5/4 647/5/4 652/5/4
f 650/5/4 651/5/4 653/5/4
f 653/5/4 651/5/4 654/5/4
f 655/5/4 656/5/4 659/5/4
f 659/5/4 656/5/4 660/5/4
f 657/5/4 658/5/4 661/5/4
f 661/5/4 658/5/4 662/5/4
f 663/5/4 664/5/4 667/5/4
f 667/5/4 664/5/4 668/5/4
f 665/5/4 666/5/4 670/5/4
f 670/5/4 666/5/4 671/5/4
f 668/5/4 669/5/4 673/5/4
f 673/5/4 669/5/4 674/5/4
f 672/5/4 673/5/4 679/5/4
f 679/5/4 673/5/4 680/5/4
f 675/5/4 676/5/4 681/5/4
f 681/5/4 676/5/4 682/5/4
f 677/5/4 678/5/4 683/5/4
f 683/5/4 678/5/4 684/5/4
f 685/5/4 686/5/4 688/5/4
f 688/5/4 686/5/4 689/5/4
f 687/5/4 688/5/4 691/5/4
f 689/5/4 690/5/4 691/5/4
f 688/5/4 689/5/4 691/5/4
f 687/5/4 691/5/4 693/5/4
f 691/5/4 692/5/4 693/5/4
f 693/5/4 692/5/4 694/5/4
f 687/5/4 693/5/4 695/5/4
f 695/5/4 693/5/4 696/5/4
f 696/5/4 693/5/4 697/5/4
f 697/5/4 693/5/4 698/5/4
f 696/5/4 697/5/4 699/5/4
f 699/5/4 697/5/4 700/5/4
f 705/1/5 702/1/5 701/1/5
f 706/1/5 702/1/5 705/1/5
f 707/1/5 704/1/5 703/1/5
f 708/1/5 704/1/5 707/1/5
f 713/4/5 710/4/5 709/4/5
f 714/4/5 712/4/5 711/4/5
f 715/4/5 713/4/5 709/4/5
f 716/4/5 713/4/5 715/4/5
f 717/4/5 712/4/5 714/4/5
f 718/4/5 712/4/5 717/4/5
f 721/3/5 720/3/5 719/3/5
f 722/3/5 720/3/5 721/3/5
f 723/3/5 720/3/5 722/3/5
f 724/3/5 720/3/5 723/3/5
f 726/3/5 723/3/5 722/3/5
f 727/3/5 723/3/5 726/3/5
f 729/3/5 726/3/5 725/3/5
f 729/3/5 728/3/5 727/3/5
f 729/3/5 727/3/5 726/3/5
f 730/3/5 728/3/5 729/3/5
f 735/5/5 732/5/5 731/5/5
f 736/5/5 732/5/5 735/5/5
f 737/5/5 734/5/5 733/5/5
f 738/5/5 734/5/5 737/5/5
f 742/2/5 740/2/5 739/2/5
f 743/2/5 740/2/5 742/2/5
f 745/2/5 742/2/5 741/2/5
f 745/2/5 744/2/5 743/2/5
f 745/2/5 743/2/5 742/2/5
f 746/2/5 744/2/5 745/2/5
f 747/2/5 745/2/5 741/2/5
f 748/2/5 745/2/5 747/2/5
f 749/2/5 744/2/5 746/2/5
f 750/2/5 744/2/5 749/2/5
f 751/2/5 747/2/5 741/2/5
f 754/2/5 744/2/5 750/2/5
f 755/2/5 752/2/5 751/2/5
f 755/2/5 751/2/5 741/2/5
f 756/2/5 752/2/5 755/2/5
f 757/2/5 754/2/5 753/2/5
f 758/2/5 744/2/5 754/2/5
f 758/2/5 754/2/5 757/2/5
f 759/5/5 756/5/5 755/5/5
f 759/5/5 757/5/5 756/5/5
f 759/5/5 758/5/5 757/5/5
f 760/5/5 758/5/5 759/5/5
f 765/2/5 762/2/5 761/2/5
f 766/2/5 762/2/5 765/2/5
f 770/2/5 764/2/5 763/2/5
f 771/2/5 764/2/5 770/2/5
f 772/2/5 768/2/5 767/2/5
f 773/2/5 768/2/5 772/2/5
f 775/2/5 770/2/5 769/2/5
f 776/2/5 770/2/5 775/2/5
f 777/2/5 774/2/5 773/2/5
f 778/2/5 774/2/5 777/2/5
f 779/5/5 776/5/5 775/5/5
f 780/5/5 776/5/5 779/5/5
f 781/5/5 776/5/5 780/5/5
f 782/5/5 778/5/5 777/5/5
f 783/5/5 778/5/5 782/5/5
f 784/5/5 778/5/5 783/5/5
f 785/5/5 781/5/5 780/5/5
f 785/5/5 783/5/5 782/5/5
f 785/5/5 782/5/5 781/5/5
f 786/5/5 783/5/5 785/5/5
f 791/5/5 788/5/5 787/5/5
f 792/5/5 788/5/5 791/5/5
f 793/5/5 790/5/5 789/5/5
f 794/5/5 790/5/5 793/5/5
f 797/5/5 796/5/5 795/5/5
f 798/5/5 796/5/5 797/5/5
f 801/5/5 800/5/5 799/5/5
f 802/5/5 800/5/5 801/5/5
f 807/5/5 804/5/5 803/5/5
f 808/5/5 804/5/5 807/5/5
f 809/5/5 806/5/5 805/5/5
f 810/5/5 806/5/5 809/5/5
f 815/5/5 812/5/5 811/5/5
f 816/5/5 812/5/5 815/5/5
f 817/5/5 815/5/5 811/5/5
f 818/5/5 815/5/5 817/5/5
f 819/5/5 814/5/5 813/5/5
f 820/5/5 814/5/5 819/5/5
f 825/5/5 822/5/5 821/5/5
f 826/5/5 822/5/5 825/5/5
f 827/5/5 824/5/5 823/5/5
f 828/5/5 824/5/5 827/5/5
f 833/5/5 830/5/5 829/5/5
f 834/5/5 830/5/5 833/5/5
f 835/5/5 832/5/5 831/5/5
f 836/5/5 832/5/5 835/5/5
f 837/1/6 838/1/6 841/1/6
f 841/1/6 838/1/6 842/1/6
f 839/1/6 840/1/6 843/1/6
f 843/1/6 840/1/6 844/1/6
f 837/1/6 841/1/6 845/1/6
f 842/1/6 838/1/6 846/1/6
f 839/1/6 843/1/6 847/1/6
f 844/1/6 840/1/6 848/1/6
f 837/1/6 845/1/6 849/1/6
f 845/1/6 846/1/6 849/1/6
f 846/1/6 838/1/6 850/1/6
f 849/1/6 846/1/6 850/1/6
f 847/1/6 848/1/6 851/1/6
f 839/1/6 847/1/6 851/1/6
f 848/1/6 840/1/6 852/1/6
f 851/1/6 848/1/6 852/1/6
f 853/4/6 854/4/6 857/4/6
f 857/4/6 854/4/6 858/4/6
f 855/4/6 856/4/6 859/4/6
f 859/4/6 856/4/6 860/4/6
f 858/4/6 854/4/6 861/4/6
f 861/4/6 854/4/6 862/4/6
f 855/4/6 859/4/6 863/4/6
f 863/4/6 859/4/6 864/4/6
f 865/5/6 866/5/6 869/5/6
f 869/5/6 866/5/6 870/5/6
f 867/5/6 868/5/6 871/5/6
f 871/5/6 868/5/6 872/5/6
f 873/2/6 874/2/6 877/2/6
f 877/2/6 874/2/6 878/2/6
f 875/2/6 876/2/6 879/2/6
f 879/2/6 876/2/6 880/2/6
f 881/2/6 882/2/6 885/2/6
f 883/2/6 884/2/6 885/2/6
f 882/2/6 883/2/6 885/2/6
f 885/2/6 884/2/6 886/2/6
f 885/2/6 886/2/6 887/2/6
f 887/2/6 886/2/6 888/2/6
f 889/5/6 890/5/6 893/5/6
f 893/5/6 890/5/6 894/5/6
f 891/5/6 892/5/6 895/5/6
f 895/5/6 892/5/6 896/5/6
f 897/5/6 898/5/6 899/5/6
f 899/5/6 898/5/6 900/5/6
f 901/2/6 902/2/6 905/2/6
f 903/2/6 904/2/6 906/2/6
f 901/2/6 905/2/6 907/2/6
f 907/2/6 905/2/6 908/2/6
f 906/2/6 904/2/6 909/2/6
f 909/2/6 904/2/6 910/2/6
f 907/5/6 908/5/6 911/5/6
f 911/5/6 908/5/6 912/5/6
f 909/5/6 910/5/6 913/5/6
f 913/5/6 910/5/6 914/5/6
f 915/4/6 916/4/6 919/4/6
f 919/4/6 916/4/6 920/4/6
f 917/4/6 918/4/6 921/4/6
f 921/4/6 918/4/6 922/4/6
f 923/5/6 924/5/6 927/5/6
f 927/5/6 924/5/6 928/5/6
f 925/5/6 926/5/6 929/5/6
f 929/5/6 926/5/6 930/5/6
f 931/5/6 932/5/6 935/5/6
f 935/5/6 932/5/6 936/5/6
f 933/5/6 934/5/6 937/5/6
f 937/5/6 934/5/6 938/5/6
f 939/5/6 940/5/6 943/5/6
f 943/5/6 940/5/6 944/5/6
f 941/5/6 942/5/6 945/5/6
f 945/5/6 942/5/6 946/5/6
f 947/5/6 948/5/6 950/5/6
f 950/5/6 948/5/6 951/5/6
f 951/5/6 948/5/6 952/5/6
f 952/5/6 948/5/6 953/5/6
f 949/5/6 950/5/6 955/5/6
f 950/5/6 951/5/6 955/5/6
f 955/5/6 951/5/6 956/5/6
f 953/5/6 954/5/6 957/5/6
f 952/5/6 953/5/6 957/5/6
f 957/5/6 954/5/6 958/5/6
f 949/5/6 955/5/6 959/5/6
f 959/5/6 955/5/6 960/5/6
f 958/5/6 954/5/6 961/5/6
f 961/5/6 954/5/6 962/5/6
f 963/5/6 964/5/6 967/5/6
f 967/5/6 964/5/6 968/5/6
f 965/5/6 966/5/6 969/5/6
f 969/5/6 966/5/6 970/5/6
f 968/5/6 969/5/6 971/5/6
f 971/5/6 969/5/6 972/5/6
f 973/5/6 974/5/6 976/5/6
f 976/5/6 974/5/6 977/5/6
f 975/5/6 976/5/6 979/5/6
f 977/5/6 978/5/6 979/5/6
f 976/5/6 977/5/6 979/5/6
f 979/5/6 978/5/6 980/5/6
f 980/5/6 978/5/6 981/5/6
f 981/5/6 978/5/6 982/5/6
f 980/5/6 981/5/6 984/5/6
f 984/5/6 981/5/6 985/5/6
f 983/5/6 984/5/6 987/5/6
f 985/5/6 986/5/6 987/5/6
f 984/5/6 985/5/6 987/5/6
f 987/5/6 986/5/6 988/5/6
f 989/5/6 990/5/6 997/5/6
f 997/5/6 990/5/6 998/5/6
f 991/5/6 992/5/6 999/5/6
f 999/5/6 992/5/6 1000/5/6
f 993/5/6 994/5/6 1001/5/6
f 1001/5/6 994/5/6 1002/5/6
f 995/5/6 996/5/6 1003/5/6
f 1003/5/6 996/5/6 1004/5/6
f 1005/5/6 1006/5/6 1013/5/6
f 1013/5/6 1006/5/6 1014/5/6
f 1007/5/6 1008/5/6 1015/5/6
f 1015/5/6 1008/5/6 1016/5/6
f 1009/5/6 1010/5/6 1017/5/6
f 1017/5/6 1010/5/6 1018/5/6
f 1011/5/6 1012/5/6 1019/5/6
f 1019/5/6 1012/5/6 1020/5/6
f 1021/5/6 1022/5/6 1025/5/6
f 1025/5/6 1022/5/6 1026/5/6
f 1023/5/6 1024/5/6 1027/5/6
f 1027/5/6 1024/5/6 1028/5/6
